#!OML:ASF G:\JayActor3\Patient Classification 1\Patient 1\Session 5\male.ASF
:FULLY-SPECIFIED
:DEGREES
1095
root 56.6408 13.7952 -5.8307 266.755 89.3851 257.27
lowerback 28.4228 -1.86135 1.71502
upperback 6.77455 -1.32032 -0.272767
thorax -8.1429 -0.40266 -0.874964
lowerneck -7.12096 -0.630066 0.770384
upperneck -5.5696 -0.712965 1.45902
head -0.5354 -0.310495 0.304911
rclavicle -9.44227e-015 1.53064e-014
rhumerus -23.6318 4.73654 -86.0177
rradius 44.2547
rwrist -5.01761
rhand -21.0571 -8.41402
rfingers 7.12502
rthumb 5.31922 -38.3273
lclavicle -9.44227e-015 1.53064e-014
lhumerus -23.6839 -7.66335 82.8531
lradius 44.9962
lwrist 25.2804
lhand -18.0757 12.1999
lfingers 7.12502
lthumb 8.19724 42.0209
rfemur -70.1359 -1.65748 25.3563
rtibia 69.2584
rfoot -17.8106 1.21926
rtoes -14.4734
lfemur -47.5773 8.94079 -28.6254
ltibia 72.0572
lfoot -30.126 9.46572
ltoes -8.20258
1096
root 56.7525 13.8112 -5.8349 261.5 89.424 251.974
lowerback 28.2832 -1.85761 1.69416
upperback 6.74638 -1.32889 -0.265588
thorax -8.10583 -0.408585 -0.853198
lowerneck -7.13046 -0.628917 0.781368
upperneck -5.62491 -0.709885 1.4524
head -0.550813 -0.30877 0.301293
rclavicle -6.95746e-016 1.22253e-014
rhumerus -23.727 4.64726 -85.9766
rradius 44.1609
rwrist -5.00991
rhand -21.0494 -8.4229
rfingers 7.12502
rthumb 5.32664 -38.336
lclavicle -6.95746e-016 1.22253e-014
lhumerus -23.687 -7.70357 82.9042
lradius 45.0508
lwrist 25.3435
lhand -18.0753 12.1926
lfingers 7.12502
lthumb 8.19764 42.0136
rfemur -69.9126 -1.50519 25.3406
rtibia 66.7602
rfoot -18.3284 0.769446
rtoes -13.186
lfemur -47.0615 9.08042 -28.6333
ltibia 71.9696
lfoot -30.2822 9.37512
ltoes -8.90537
1097
root 56.8641 13.8249 -5.83751 254.27 89.4489 244.709
lowerback 28.1557 -1.85574 1.67568
upperback 6.7199 -1.3381 -0.256293
thorax -8.0727 -0.41462 -0.83017
lowerneck -7.13595 -0.631643 0.784375
upperneck -5.68857 -0.710723 1.45915
head -0.569312 -0.308867 0.303001
rclavicle -6.65929e-015 -8.94531e-016
rhumerus -23.821 4.5544 -85.9371
rradius 44.0648
rwrist -5.00107
rhand -21.0436 -8.42803
rfingers 7.12502
rthumb 5.33224 -38.3409
lclavicle -6.65929e-015 -8.94531e-016
lhumerus -23.6904 -7.77036 82.9552
lradius 45.1133
lwrist 25.4335
lhand -18.0914 12.1884
lfingers 7.12502
lthumb 8.18214 42.01
rfemur -69.6263 -1.3305 25.2751
rtibia 64.2227
rfoot -18.7758 0.155353
rtoes -11.9732
lfemur -46.5612 9.22531 -28.6287
ltibia 71.9111
lfoot -30.4264 9.24731
ltoes -9.58324
1098
root 56.9761 13.8372 -5.83834 244.227 89.4687 234.641
lowerback 28.0388 -1.85362 1.64175
upperback 6.69785 -1.35045 -0.248641
thorax -8.03945 -0.421551 -0.798995
lowerneck -7.12955 -0.634775 0.796376
upperneck -5.76773 -0.712318 1.45765
head -0.594497 -0.309581 0.300825
rclavicle -1.43125e-014 -2.19657e-014
rhumerus -23.91 4.46205 -85.897
rradius 43.9629
rwrist -4.98772
rhand -21.0485 -8.42237
rfingers 7.12502
rthumb 5.32753 -38.3354
lclavicle -1.43125e-014 -2.19657e-014
lhumerus -23.6926 -7.85761 83.006
lradius 45.1856
lwrist 25.5409
lhand -18.1059 12.1837
lfingers 7.12502
lthumb 8.16812 42.0058
rfemur -69.2706 -1.12496 25.1281
rtibia 61.6459
rfoot -19.1553 -0.630113
rtoes -11.2968
lfemur -46.0582 9.37709 -28.6302
ltibia 71.8669
lfoot -30.5575 9.10887
ltoes -10.2909
1099
root 57.0884 13.848 -5.8374 231.767 89.4621 222.167
lowerback 27.9308 -1.85318 1.6045
upperback 6.67998 -1.36491 -0.241426
thorax -8.00576 -0.429092 -0.765694
lowerneck -7.11751 -0.643384 0.790798
upperneck -5.85528 -0.718991 1.47989
head -0.62298 -0.312539 0.308672
rclavicle -1.36167e-014 -1.78906e-014
rhumerus -23.9943 4.36329 -85.8585
rradius 43.8565
rwrist -4.96864
rhand -21.0617 -8.41501
rfingers 7.12502
rthumb 5.31478 -38.3284
lclavicle -1.36167e-014 -1.78906e-014
lhumerus -23.6933 -7.96428 83.057
lradius 45.2627
lwrist 25.6408
lhand -18.124 12.1832
lfingers 7.12502
lthumb 8.15064 42.006
rfemur -68.8547 -0.883993 24.8974
rtibia 59.072
rfoot -19.5003 -1.58103
rtoes -11.1753
lfemur -45.5471 9.53707 -28.628
ltibia 71.8296
lfoot -30.6787 8.96168
ltoes -11.0013
